# xmcd
#
# Track frame offsets:
#	150
#	13836
#	27426
#	40165
#	58181
#	73919
#	90914
#	107754
#	125651
#	141740
#	157794
#	171266
#	188843
#	207052
#	223627
#	242738
#	261586
#	278905
#	294242
#
# Disc length: 4154 seconds
# Revision: 2
# Processed by: cddbd v1.5.2PL0 Copyright (c) Steve Scherf et al.
# Submitted via: dBpowerAMP V12.0
#
DISCID=24103813
DTITLE=Various Artist - Country Radio April 2009
DYEAR=2009
DGENRE=Country
TTITLE0=Dierks Bentley - Sideways
TTITLE1=Alan Jackson - Sissy's Song
TTITLE2=Randy Houser - Boots On
TTITLE3=John Rich - Shuttin Detroit Down
TTITLE4=Chris Young - Gettin You Home The Black Dress Song
TTITLE5=Miley Cyrus - The Climb (Guitar Intro)
TTITLE6=Pat Green - Country Star
TTITLE7=Blake Shelton - I'll Just Hold On
TTITLE8=Crystal Shawanda - Dawn Of A New Day
TTITLE9=Trailer Choir - What Would You Say
TTITLE10=Sugarland - It Happens
TTITLE11=Rankin Family The  - Never Alone
TTITLE12=David Nail - Red Light
TTITLE13=Eli Young Band - Always The Love Songs
TTITLE14=Jason Michael Carroll - Where I'm From
TTITLE15=Kid Rock - Blue Jeans and A Rosary
TTITLE16=Billy Currington - People Are Crazy
TTITLE17=Trent Tomlinson - That's How It Still Oughta Be
TTITLE18=Josh Gracin - Telluride
EXTD=
EXTT0=
EXTT1=
EXTT2=
EXTT3=
EXTT4=
EXTT5=
EXTT6=
EXTT7=
EXTT8=
EXTT9=
EXTT10=
EXTT11=
EXTT12=
EXTT13=
EXTT14=
EXTT15=
EXTT16=
EXTT17=
EXTT18=
PLAYORDER=
